<svg width="120" height="120" viewBox="0 0 120 120" fill="none" xmlns="http://www.w3.org/2000/svg">
<g clip-path="url(#clip0_46_51)">
<path d="M34.9122 19.1637C34.4847 18.0998 35.8924 17.2703 36.6159 18.1597L59.5043 46.3C59.909 46.7976 60.6711 46.7909 61.0669 46.2861L83.4509 17.743C84.1585 16.8408 85.5807 17.6451 85.1722 18.7164L72.2462 52.6085C72.0176 53.2078 72.4045 53.8644 73.0396 53.9548L108.951 59.0684C110.086 59.23 110.1 60.864 108.968 61.0458L73.1538 66.7976C72.5205 66.8993 72.1453 67.5626 72.3846 68.1578L85.9116 101.814C86.3392 102.878 84.9314 103.708 84.2079 102.818L61.3196 74.6782C60.9148 74.1805 60.1527 74.1873 59.7569 74.6921L37.3729 103.235C36.6654 104.137 35.2431 103.333 35.6517 102.262L48.5776 68.3697C48.8062 67.7703 48.4193 67.1137 47.7842 67.0233L11.8732 61.9097C10.7381 61.7481 10.7236 60.1142 11.8556 59.9324L47.67 54.1806C48.3033 54.0789 48.6785 53.4155 48.4393 52.8203L34.9122 19.1637Z" fill="#303030"/>
</g>
<defs>
</defs>
</svg>
